<?xml version="1.0" encoding="UTF-8"?>
<svg width="96px" height="96px" viewBox="0 0 96 96" version="1.1" xmlns="http://www.w3.org/2000/svg" xmlns:xlink="http://www.w3.org/1999/xlink">
    <title>Final/FaSolutions-Square/White</title>
    <g id="Final/FaSolutions-Square/White" stroke="none" stroke-width="1" fill="none" fill-rule="evenodd">
        <path d="M5.05284599,76 C5.89226161,76 6.70714885,76.1178082 7.49750772,76.3534247 C8.28786658,76.5890411 8.9065268,76.8986301 9.35348836,77.2821918 L9.35348836,77.2821918 L8.40505772,79.4684932 L8.14660129,79.2947489 C7.71205532,79.0169711 7.25858314,78.7981735 6.78618474,78.6383562 C6.21930665,78.4465753 5.65242857,78.3506849 5.08555049,78.3506849 C4.52957391,78.3506849 4.08261234,78.4575342 3.74466579,78.6712329 C3.40671925,78.8849315 3.23774597,79.1726027 3.23774597,79.5342466 C3.23774597,79.7315068 3.29770423,79.8958904 3.41762075,80.0273973 C3.53753726,80.1589041 3.76101805,80.2876712 4.08806309,80.4136986 C4.41510814,80.539726 4.90567571,80.6739726 5.55976581,80.8164384 C6.61721146,81.0465753 7.44845096,81.3232877 8.0534843,81.6465753 C8.65851763,81.969863 9.08640157,82.3479452 9.33713611,82.7808219 C9.58787065,83.2136986 9.71323791,83.7315068 9.71323791,84.3342466 C9.71323791,85.4739726 9.2717271,86.369863 8.38870547,87.0219178 C7.50568384,87.6739726 6.26291266,88 4.66039193,88 C3.7882718,88 2.92705318,87.8849315 2.07673605,87.6547945 C1.22641893,87.4246575 0.534173578,87.1123288 -1.42108547e-14,86.7178082 L-1.42108547e-14,86.7178082 L0.96478289,84.5315068 L1.25117442,84.7052511 C1.73341446,84.9830289 2.24025858,85.2018265 2.77170678,85.3616438 C3.40944462,85.5534247 4.04990784,85.6493151 4.69309643,85.6493151 C5.34718653,85.6493151 5.8486556,85.5589041 6.19750365,85.3780822 C6.5463517,85.1972603 6.72077573,84.9424658 6.72077573,84.6136986 C6.72077573,84.3178082 6.56270395,84.0739726 6.24656041,83.8821918 C5.93041686,83.690411 5.33628503,83.5013699 4.4641649,83.3150685 C3.36311324,83.0958904 2.50734536,82.8246575 1.89686128,82.5013699 C1.28637719,82.1780822 0.85849325,81.7972603 0.613209464,81.3589041 C0.367925679,80.9205479 0.245283786,80.3890411 0.245283786,79.7643836 C0.245283786,79.0520548 0.446961565,78.4082192 0.850317124,77.8328767 C1.25367268,77.2575342 1.82055076,76.8082192 2.55095137,76.4849315 C3.28135198,76.1616438 4.11531685,76 5.05284599,76 Z M16.7231329,76 C17.9113966,76 18.9443139,76.2438356 19.8218848,76.7315068 C20.6994556,77.2191781 21.3726234,77.9123288 21.8413879,78.8109589 C22.3101525,79.709589 22.5445348,80.7671233 22.5445348,81.9835616 C22.5445348,83.2 22.3101525,84.2630137 21.8413879,85.1726027 C21.3726234,86.0821918 20.6994556,86.7808219 19.8218848,87.2684932 C18.9443139,87.7561644 17.9113966,88 16.7231329,88 C15.5348693,88 14.4992266,87.7561644 13.616205,87.2684932 C12.7331834,86.7808219 12.0545649,86.0821918 11.5803496,85.1726027 C11.1061342,84.2630137 10.8690266,83.2 10.8690266,81.9835616 C10.8690266,80.7671233 11.1088596,79.709589 11.5885257,78.8109589 C12.0681918,77.9123288 12.7468102,77.2191781 13.6243811,76.7315068 C14.501952,76.2438356 15.5348693,76 16.7231329,76 Z M36.5422923,76.1479452 L36.5422923,83.0356164 L36.5479339,83.2828493 C36.581783,84.0067945 36.7679534,84.5709589 37.106445,84.9753425 C37.4825468,85.4246575 38.0194458,85.6493151 38.7171419,85.6493151 C39.4039365,85.6493151 39.9326593,85.4219178 40.3033104,84.9671233 C40.6739614,84.5123288 40.859287,83.8684932 40.859287,83.0356164 L40.859287,83.0356164 L40.859287,76.1479452 L43.8844536,76.1479452 L43.8844536,82.9205479 L43.8792478,83.2242402 C43.8271888,84.7200664 43.3846879,85.8763699 42.5517451,86.6931507 C41.6632727,87.5643836 40.3850716,88 38.7171419,88 C37.0165076,88 35.7301305,87.569863 34.8580103,86.709589 C33.9858902,85.8493151 33.5498301,84.5863014 33.5498301,82.9205479 L33.5498301,82.9205479 L33.5498301,76.1479452 L36.5422923,76.1479452 Z M67.083308,76 C68.2715717,76 69.304489,76.2438356 70.1820599,76.7315068 C71.0596307,77.2191781 71.7327985,77.9123288 72.201563,78.8109589 C72.6703276,79.709589 72.9047099,80.7671233 72.9047099,81.9835616 C72.9047099,83.2 72.6703276,84.2630137 72.201563,85.1726027 C71.7327985,86.0821918 71.0596307,86.7808219 70.1820599,87.2684932 C69.304489,87.7561644 68.2715717,88 67.083308,88 C65.8950444,88 64.8594017,87.7561644 63.9763801,87.2684932 C63.0933585,86.7808219 62.41474,86.0821918 61.9405247,85.1726027 C61.4663093,84.2630137 61.2292017,83.2 61.2292017,81.9835616 C61.2292017,80.7671233 61.4690347,79.709589 61.9487008,78.8109589 C62.4283669,77.9123288 63.1069853,77.2191781 63.9845562,76.7315068 C64.8621271,76.2438356 65.8950444,76 67.083308,76 Z M91.3396081,76 C92.1790237,76 92.9939109,76.1178082 93.7842698,76.3534247 C94.5746287,76.5890411 95.1932889,76.8986301 95.6402504,77.2821918 L95.6402504,77.2821918 L94.6918198,79.4684932 L94.4333634,79.2947489 C93.9988174,79.0169711 93.5453452,78.7981735 93.0729468,78.6383562 C92.5060687,78.4465753 91.9391907,78.3506849 91.3723126,78.3506849 C90.816336,78.3506849 90.3693744,78.4575342 90.0314279,78.6712329 C89.6934813,78.8849315 89.5245081,79.1726027 89.5245081,79.5342466 C89.5245081,79.7315068 89.5844663,79.8958904 89.7043828,80.0273973 C89.8242994,80.1589041 90.0477801,80.2876712 90.3748252,80.4136986 C90.7018702,80.539726 91.1924378,80.6739726 91.8465279,80.8164384 C92.9039735,81.0465753 93.735213,81.3232877 94.3402464,81.6465753 C94.9452797,81.969863 95.3731637,82.3479452 95.6238982,82.7808219 C95.8746327,83.2136986 96,83.7315068 96,84.3342466 C96,85.4739726 95.5584892,86.369863 94.6754676,87.0219178 C93.7924459,87.6739726 92.5496747,88 90.947154,88 C90.0750339,88 89.2138153,87.8849315 88.3634981,87.6547945 C87.513181,87.4246575 86.8209357,87.1123288 86.2867621,86.7178082 L86.2867621,86.7178082 L87.251545,84.5315068 L87.5379365,84.7052511 C88.0201765,84.9830289 88.5270207,85.2018265 89.0584689,85.3616438 C89.6962067,85.5534247 90.3366699,85.6493151 90.9798585,85.6493151 C91.6339486,85.6493151 92.1354177,85.5589041 92.4842657,85.3780822 C92.8331138,85.1972603 93.0075378,84.9424658 93.0075378,84.6136986 C93.0075378,84.3178082 92.849466,84.0739726 92.5333225,83.8821918 C92.2171789,83.690411 91.6230471,83.5013699 90.750927,83.3150685 C89.6498753,83.0958904 88.7941075,82.8246575 88.1836234,82.5013699 C87.5731393,82.1780822 87.1452553,81.7972603 86.8999716,81.3589041 C86.6546878,80.9205479 86.5320459,80.3890411 86.5320459,79.7643836 C86.5320459,79.0520548 86.7337237,78.4082192 87.1370792,77.8328767 C87.5404348,77.2575342 88.1073129,76.8082192 88.8377135,76.4849315 C89.5681141,76.1616438 90.4020789,76 91.3396081,76 Z M27.167001,76.1479452 L27.167001,85.3534247 L32.0890289,85.3534247 L32.0890289,87.8520548 L24.0927775,87.8520548 L24.0927775,76.1479452 L27.167001,76.1479452 Z M55.2330315,76.1479452 L55.2330315,78.6465753 L51.766354,78.6465753 L51.766354,87.8520548 L48.6594261,87.8520548 L48.6594261,78.6465753 L45.1927486,78.6465753 L45.1927486,76.1479452 L55.2330315,76.1479452 Z M59.6973112,76.1479452 L59.6973112,87.8520548 L56.6230878,87.8520548 L56.6230878,76.1479452 L59.6973112,76.1479452 Z M76.6932112,76.1479452 L81.9749887,82.7561644 L81.9749887,76.1479452 L84.8693374,76.1479452 L84.8693374,87.8520548 L82.5963743,87.8520548 L77.3145968,81.2109589 L77.3145968,87.8520548 L74.4529526,87.8520548 L74.4529526,76.1479452 L76.6932112,76.1479452 Z M16.7231329,78.3506849 C15.8510128,78.3506849 15.169669,78.6575342 14.6791014,79.2712329 C14.1885338,79.8849315 13.94325,80.7890411 13.94325,81.9835616 C13.94325,83.1890411 14.1885338,84.1013699 14.6791014,84.7205479 C15.169669,85.339726 15.8510128,85.6493151 16.7231329,85.6493151 C17.5952531,85.6493151 18.2793223,85.3369863 18.7753406,84.7123288 C19.2713589,84.0876712 19.5193681,83.1780822 19.5193681,81.9835616 C19.5193681,80.8 19.2713589,79.8986301 18.7753406,79.2794521 C18.2793223,78.660274 17.5952531,78.3506849 16.7231329,78.3506849 Z M67.083308,78.3506849 C66.2111879,78.3506849 65.5298441,78.6575342 65.0392765,79.2712329 C64.5487089,79.8849315 64.3034251,80.7890411 64.3034251,81.9835616 C64.3034251,83.1890411 64.5487089,84.1013699 65.0392765,84.7205479 C65.5298441,85.339726 66.2111879,85.6493151 67.083308,85.6493151 C67.9554282,85.6493151 68.6394974,85.3369863 69.1355157,84.7123288 C69.631534,84.0876712 69.8795432,83.1780822 69.8795432,81.9835616 C69.8795432,80.8 69.631534,79.8986301 69.1355157,79.2794521 C68.6394974,78.660274 67.9554282,78.3506849 67.083308,78.3506849 Z M53.3333333,16 L61.3333333,40 L51.2744642,70.1766074 L51.1988476,70.3765322 C50.8080365,71.2969355 49.9321046,71.9229041 48.9332745,71.9933626 L48.7446421,72 L34.6666667,72 L53.3333333,16 Z M71.2153298,8 L71.4967654,8.00700236 C73.6569819,8.11466357 75.5535335,9.4550915 76.3276721,11.4253109 L76.4090249,11.6467852 L95.8587872,68.4900593 L95.9186217,68.6903005 C96.2615402,70.0287004 95.4934596,71.4196056 94.1275555,71.8631555 C93.9182196,71.9311331 93.7014733,71.9741193 93.4820626,71.9913638 L93.2619397,72 L77.8985414,72 L56,8 L71.2153298,8 Z M48,8 L43.2744642,22.1766074 L43.1988476,22.3765322 C42.8080365,23.2969355 41.9321046,23.9229041 40.9332745,23.9933626 L40.7446421,24 L18.6666667,24 L18.6666667,37.3333333 L38.2133333,37.3333333 L34.3930415,48.8402364 L34.3175808,49.0404513 C33.9274121,49.9622128 33.0508588,50.5894168 32.0510323,50.660016 L31.8622089,50.6666667 L18.6666667,50.6666667 L18.6666667,72 L5.33333333,72 L5.06714621,71.9934729 C2.31955063,71.8584219 0.118572508,69.6441371 0.00463432133,66.891041 L-1.42108547e-14,66.6666667 L-1.42108547e-14,13.3333333 L0.00652707631,13.0671462 C0.141578137,10.3195506 2.35586294,8.11857251 5.108959,8.00463432 L5.33333333,8 L48,8 Z" id="ICON" fill="#FFFFFF"></path>
    </g>
</svg>